<svg width="20" height="16" viewBox="0 0 20 16" fill="none" xmlns="http://www.w3.org/2000/svg">
<path d="M6.46427 0.928467C5.99995 0.928467 5.54018 1.01992 5.11121 1.19761C4.68224 1.37529 4.29246 1.63573 3.96414 1.96405C3.63582 2.29237 3.37538 2.68215 3.19769 3.11112C3.02001 3.54009 2.92855 3.99986 2.92855 4.46418C2.92855 4.9285 3.02001 5.38827 3.19769 5.81724C3.37538 6.24621 3.63582 6.63599 3.96414 6.96431C4.29246 7.29263 4.68224 7.55307 5.11121 7.73076C5.54018 7.90844 5.99995 7.9999 6.46427 7.9999C7.402 7.9999 8.30132 7.62738 8.9644 6.96431C9.62747 6.30123 9.99998 5.40191 9.99998 4.46418C9.99998 3.52645 9.62747 2.62713 8.9644 1.96405C8.30132 1.30098 7.402 0.928467 6.46427 0.928467ZM4.10713 4.46418C4.10713 4.15464 4.1681 3.84812 4.28655 3.56214C4.40501 3.27616 4.57864 3.01631 4.79752 2.79743C5.0164 2.57855 5.27625 2.40492 5.56223 2.28646C5.84821 2.16801 6.15472 2.10704 6.46427 2.10704C6.77381 2.10704 7.08033 2.16801 7.36631 2.28646C7.65229 2.40492 7.91214 2.57855 8.13102 2.79743C8.3499 3.01631 8.52353 3.27616 8.64198 3.56214C8.76044 3.84812 8.82141 4.15464 8.82141 4.46418C8.82141 5.08933 8.57307 5.68888 8.13102 6.13093C7.68897 6.57298 7.08942 6.82132 6.46427 6.82132C5.83912 6.82132 5.23957 6.57298 4.79752 6.13093C4.35547 5.68888 4.10713 5.08933 4.10713 4.46418ZM14.7143 2.4999C13.9849 2.4999 13.2854 2.78963 12.7697 3.30535C12.254 3.82108 11.9643 4.52055 11.9643 5.2499C11.9643 5.97924 12.254 6.67871 12.7697 7.19444C13.2854 7.71016 13.9849 7.9999 14.7143 7.9999C15.4436 7.9999 16.1431 7.71016 16.6588 7.19444C17.1745 6.67871 17.4643 5.97924 17.4643 5.2499C17.4643 4.52055 17.1745 3.82108 16.6588 3.30535C16.1431 2.78963 15.4436 2.4999 14.7143 2.4999ZM13.1428 5.2499C13.1428 4.83313 13.3084 4.43343 13.6031 4.13873C13.8978 3.84403 14.2975 3.67847 14.7143 3.67847C15.131 3.67847 15.5307 3.84403 15.8254 4.13873C16.1201 4.43343 16.2857 4.83313 16.2857 5.2499C16.2857 5.66666 16.1201 6.06636 15.8254 6.36106C15.5307 6.65576 15.131 6.82132 14.7143 6.82132C14.2975 6.82132 13.8978 6.65576 13.6031 6.36106C13.3084 6.06636 13.1428 5.66666 13.1428 5.2499ZM0.571411 11.3392C0.571411 10.8703 0.757667 10.4207 1.0892 10.0891C1.42074 9.75758 1.8704 9.57132 2.33927 9.57132H10.5893C11.0581 9.57132 11.5078 9.75758 11.8393 10.0891C12.1709 10.4207 12.3571 10.8703 12.3571 11.3392V11.7564C12.3561 11.82 12.3517 11.8834 12.3438 11.9465C12.326 12.1086 12.2972 12.2693 12.2573 12.4274C12.1274 12.9433 11.8958 13.4282 11.5761 13.8535C10.7794 14.9165 9.25984 15.857 6.46427 15.857C3.6687 15.857 2.14913 14.9165 1.35241 13.8535C1.03298 13.4281 0.801656 12.9433 0.671983 12.4274C0.620682 12.222 0.587813 12.0124 0.573768 11.8012C0.572789 11.7863 0.572003 11.7713 0.571411 11.7564V11.3392ZM1.74998 11.7281V11.7423L1.75705 11.8208C1.76491 11.8947 1.78063 12.0055 1.8152 12.1414C1.9068 12.5048 2.06972 12.8464 2.29448 13.1463C2.82405 13.8511 3.95627 14.6785 6.46427 14.6785C8.97227 14.6785 10.1045 13.8511 10.6333 13.1463C10.9083 12.7802 11.045 12.414 11.1126 12.1414C11.1456 12.0104 11.1674 11.8769 11.1778 11.7423L11.1786 11.7281V11.3392C11.1786 11.1829 11.1165 11.033 11.006 10.9225C10.8954 10.812 10.7456 10.7499 10.5893 10.7499H2.33927C2.18298 10.7499 2.03309 10.812 1.92258 10.9225C1.81207 11.033 1.74998 11.1829 1.74998 11.3392V11.7281ZM12.4357 13.987C13.0431 14.1733 13.7926 14.2856 14.7127 14.2856C16.8891 14.2856 18.1054 13.6602 18.7662 12.9059C19.0304 12.6074 19.2262 12.2548 19.3398 11.8727C19.3846 11.7184 19.4133 11.5599 19.4254 11.3997L19.427 11.3628V11.3392C19.427 10.8703 19.2407 10.4207 18.9092 10.0891C18.5777 9.75758 18.128 9.57132 17.6591 9.57132H12.431C12.7406 9.89425 12.9668 10.2989 13.0737 10.7499H17.6599C17.8148 10.7499 17.9636 10.8109 18.0738 10.9197C18.1841 11.0285 18.2471 11.1764 18.2492 11.3313C18.2422 11.4026 18.2286 11.4731 18.2083 11.5419C18.1426 11.7596 18.03 11.9602 17.8783 12.1296C17.5083 12.5539 16.6628 13.107 14.7127 13.107C13.9733 13.107 13.3927 13.0277 12.9362 12.9051C12.8151 13.2852 12.647 13.6487 12.4357 13.987Z" fill="#333333"/>
</svg>
