<svg width="60" height="60" viewBox="0 0 60 60" fill="none" xmlns="http://www.w3.org/2000/svg">
<circle cx="30" cy="30" r="30" fill="#1F7CFF"/>
<path d="M33 22C31.9391 22 30.9217 22.4214 30.1716 23.1716C29.4214 23.9217 29 24.9391 29 26C29 27.0609 29.4214 28.0783 30.1716 28.8284C30.9217 29.5786 31.9391 30 33 30C34.0609 30 35.0783 29.5786 35.8284 28.8284C36.5786 28.0783 37 27.0609 37 26C37 24.9391 36.5786 23.9217 35.8284 23.1716C35.0783 22.4214 34.0609 22 33 22ZM33 23.9C33.2758 23.9 33.5489 23.9543 33.8036 24.0599C34.0584 24.1654 34.2899 24.3201 34.4849 24.5151C34.6799 24.7101 34.8346 24.9416 34.9401 25.1964C35.0457 25.4511 35.1 25.7242 35.1 26C35.1 26.2758 35.0457 26.5489 34.9401 26.8036C34.8346 27.0584 34.6799 27.2899 34.4849 27.4849C34.2899 27.6799 34.0584 27.8346 33.8036 27.9401C33.5489 28.0457 33.2758 28.1 33 28.1C32.7242 28.1 32.4511 28.0457 32.1964 27.9401C31.9416 27.8346 31.7101 27.6799 31.5151 27.4849C31.3201 27.2899 31.1654 27.0584 31.0599 26.8036C30.9543 26.5489 30.9 26.2758 30.9 26C30.9 25.443 31.1212 24.9089 31.5151 24.5151C31.9089 24.1212 32.443 23.9 33 23.9ZM22 25V28H19V30H22V33H24V30H27V28H24V25H22ZM33 31C30.33 31 25 32.33 25 35V38H41V35C41 32.33 35.67 31 33 31ZM33 32.9C35.97 32.9 39.1 34.36 39.1 35V36.1H26.9V35C26.9 34.36 30 32.9 33 32.9Z" fill="white"/>
</svg>
