<svg width="110" height="110" viewBox="0 0 110 110" fill="none" xmlns="http://www.w3.org/2000/svg">
<g clip-path="url(#clip0_169_989)">
<path d="M75 0H35C15.67 0 0 15.67 0 35V75C0 94.33 15.67 110 35 110H75C94.33 110 110 94.33 110 75V35C110 15.67 94.33 0 75 0Z" fill="url(#paint0_linear_169_989)"/>
<path d="M65.0311 38C71.9289 38 76 41.9692 76 48.7636H67.5378V48.8329C63.6104 48.8329 60.4267 51.937 60.4267 55.766C60.4267 59.595 63.6104 62.6991 67.5378 62.6991H76V63.3231C76 70.0308 71.9289 74 65.0311 74H46.9689C40.0711 74 36 70.0308 36 63.3231V48.6769C36 41.9692 40.0711 38 46.9689 38H65.0311ZM74.5067 51.7448C75.3314 51.7448 76 52.3967 76 53.2008V58.2619C75.9904 59.0621 75.3274 59.7085 74.5067 59.7179H67.6978C65.7096 59.7439 63.971 58.4167 63.52 56.5286C63.2942 55.3566 63.6112 54.1471 64.3861 53.2244C65.1611 52.3017 66.3147 51.7601 67.5378 51.7448H74.5067ZM68.4978 54.0847H67.84C67.4362 54.0801 67.0472 54.2333 66.76 54.5101C66.4727 54.7869 66.3111 55.1643 66.3111 55.558C66.3111 56.3841 66.9928 57.0565 67.84 57.066H68.4978C69.3422 57.066 70.0267 56.3986 70.0267 55.5753C70.0267 54.7521 69.3422 54.0847 68.4978 54.0847ZM56.7644 45.7824H45.4756C44.6381 45.7823 43.9564 46.4392 43.9467 47.2557C43.9467 48.0817 44.6283 48.7541 45.4756 48.7636H56.7644C57.6088 48.7636 58.2933 48.0962 58.2933 47.273C58.2933 46.4497 57.6088 45.7824 56.7644 45.7824Z" fill="white"/>
</g>
<defs>
<linearGradient id="paint0_linear_169_989" x1="98.5" y1="99.5" x2="22.5" y2="1.72786e-06" gradientUnits="userSpaceOnUse">
<stop stop-color="#FF9066"/>
<stop offset="1" stop-color="#FF9066" stop-opacity="0.5"/>
</linearGradient>
<clipPath id="clip0_169_989">
<rect width="110" height="110" fill="white"/>
</clipPath>
</defs>
</svg>
