<svg width="23" height="22" viewBox="0 0 23 22" fill="none" xmlns="http://www.w3.org/2000/svg">
<path d="M21.1258 11.2139C21.1258 10.4225 21.0603 9.84497 20.9185 9.24609H11.6973V12.818H17.1099C17.0008 13.7057 16.4115 15.0425 15.102 15.9408L15.0836 16.0603L17.9992 18.2738L18.2012 18.2936C20.0563 16.6145 21.1258 14.1441 21.1258 11.2139Z" fill="#4285F4"/>
<path d="M11.6967 20.625C14.3484 20.625 16.5745 19.7694 18.2006 18.2936L15.1014 15.9408C14.272 16.5076 13.1589 16.9033 11.6967 16.9033C9.09946 16.9033 6.89512 15.2243 6.10933 12.9036L5.99415 12.9131L2.9625 15.2125L2.92285 15.3205C4.53791 18.4647 7.85536 20.625 11.6967 20.625Z" fill="#34A853"/>
<path d="M6.11006 12.9036C5.90272 12.3047 5.78273 11.663 5.78273 11C5.78273 10.3369 5.90272 9.69524 6.09915 9.09636L6.09366 8.96881L3.024 6.63257L2.92357 6.67938C2.25792 7.98412 1.87598 9.44929 1.87598 11C1.87598 12.5507 2.25792 14.0158 2.92357 15.3205L6.11006 12.9036Z" fill="#FBBC05"/>
<path d="M11.6967 5.09664C13.5409 5.09664 14.7849 5.87733 15.4943 6.52974L18.2661 3.8775C16.5638 2.32681 14.3485 1.375 11.6967 1.375C7.85539 1.375 4.53792 3.53526 2.92285 6.6794L6.09844 9.09638C6.89514 6.77569 9.09949 5.09664 11.6967 5.09664Z" fill="#EB4335"/>
</svg>
