<svg width="110" height="110" viewBox="0 0 110 110" fill="none" xmlns="http://www.w3.org/2000/svg">
<g clip-path="url(#clip0_169_980)">
<path d="M75 0H35C15.67 0 0 15.67 0 35V75C0 94.33 15.67 110 35 110H75C94.33 110 110 94.33 110 75V35C110 15.67 94.33 0 75 0Z" fill="url(#paint0_linear_169_980)"/>
<path d="M74.6198 56.6305C74.7639 56.7115 74.7927 56.8832 74.7985 56.9487L74.7999 56.9748L74.6398 67.3038C74.6398 71.4241 71.4474 74.784 67.4275 74.99L67.036 75H42.944C38.8732 75 35.5536 71.7688 35.3501 67.7001L35.3402 67.3038L35.2001 56.9748C35.2001 56.9748 35.2001 56.7317 35.3802 56.6305C35.5403 56.5292 35.7404 56.6507 35.7604 56.671C39.8024 59.3849 44.6648 61.1874 49.7674 61.9368C50.4877 62.038 51.2081 61.5722 51.4082 60.8431C51.8209 59.2862 53.0954 58.2276 54.6545 58.1014L54.97 58.0887H55.03C56.7309 58.0887 58.1516 59.1824 58.5918 60.8431C58.7919 61.5722 59.5123 62.038 60.2326 61.9368C65.3352 61.1874 70.1976 59.3849 74.2396 56.671C74.2396 56.671 74.2796 56.6507 74.3197 56.6305C74.3997 56.59 74.5198 56.5697 74.6198 56.6305ZM54.99 60.9849C54.238 60.9849 53.6036 61.5635 53.5031 62.2995L53.4892 62.5039V65.1165C53.4892 65.9671 54.1696 66.6355 54.99 66.6355C55.7604 66.6355 56.3794 66.0739 56.4773 65.3251L56.4907 65.1165V62.5039C56.4907 61.6735 55.8304 60.9849 54.99 60.9849ZM57.5713 35C60.5728 35 63.034 37.2886 63.4142 40.2253H67.3762C71.5783 40.2253 75 43.6886 75 47.9417C75 47.9417 74.8799 49.7422 74.8399 52.2495C74.8359 52.448 74.7399 52.6424 74.5818 52.7599C73.6193 53.4708 72.7389 54.0581 72.6588 54.0986C69.3372 56.3265 65.4772 57.8941 61.3652 58.6738C61.097 58.7265 60.8329 58.5867 60.6968 58.3477C59.5443 56.3508 57.3912 55.0505 54.99 55.0505C52.6048 55.0505 50.4317 56.3366 49.2451 58.3356C49.1071 58.5705 48.8469 58.7062 48.5808 58.6556C44.5028 57.8738 40.6428 56.3082 37.3412 54.1189L35.4202 52.7822C35.2601 52.6809 35.1601 52.4986 35.1601 52.2961C35.1001 51.2632 35 47.9417 35 47.9417C35 43.6886 38.4217 40.2253 42.6238 40.2253H46.5658C46.946 37.2886 49.4072 35 52.4087 35H57.5713ZM57.5713 38.038H52.4087C51.068 38.038 49.9275 38.9696 49.6073 40.2253H60.3727C60.0525 38.9696 58.912 38.038 57.5713 38.038Z" fill="white"/>
</g>
<defs>
<linearGradient id="paint0_linear_169_980" x1="103.5" y1="105" x2="13.5" y2="-2.79194e-06" gradientUnits="userSpaceOnUse">
<stop stop-color="#0898E7"/>
<stop offset="1" stop-color="#0898E7" stop-opacity="0.5"/>
</linearGradient>
<clipPath id="clip0_169_980">
<rect width="110" height="110" fill="white"/>
</clipPath>
</defs>
</svg>
