<svg width="26" height="26" viewBox="0 0 26 26" fill="none" xmlns="http://www.w3.org/2000/svg">
<path d="M23.8333 6.49466C23.8333 5.89883 23.3502 5.41675 22.7554 5.41675H14.0779C13.792 5.41675 13.5179 5.53031 13.3157 5.73246C13.1136 5.93461 13 6.20878 13 6.49466C13 6.78055 13.1136 7.05472 13.3157 7.25687C13.5179 7.45902 13.792 7.57258 14.0779 7.57258H22.7554C23.0413 7.57258 23.3155 7.45902 23.5176 7.25687C23.7198 7.05472 23.8333 6.78055 23.8333 6.49466ZM23.8333 13.0001C23.8333 12.4042 23.3502 11.9222 22.7554 11.9222H3.24459C2.9587 11.9222 2.68453 12.0357 2.48238 12.2379C2.28023 12.44 2.16667 12.7142 2.16667 13.0001C2.16667 13.286 2.28023 13.5601 2.48238 13.7623C2.68453 13.9644 2.9587 14.078 3.24459 14.078H22.7554C23.0413 14.078 23.3155 13.9644 23.5176 13.7623C23.7198 13.5601 23.8333 13.286 23.8333 13.0001ZM22.7554 18.4276C23.0413 18.4276 23.3155 18.5411 23.5176 18.7433C23.7198 18.9454 23.8333 19.2196 23.8333 19.5055C23.8333 19.7914 23.7198 20.0656 23.5176 20.2677C23.3155 20.4698 23.0413 20.5834 22.7554 20.5834H9.74458C9.4587 20.5834 9.18453 20.4698 8.98238 20.2677C8.78023 20.0656 8.66667 19.7914 8.66667 19.5055C8.66667 19.2196 8.78023 18.9454 8.98238 18.7433C9.18453 18.5411 9.4587 18.4276 9.74458 18.4276H22.7554Z" fill="black"/>
</svg>
