<svg width="110" height="110" viewBox="0 0 110 110" fill="none" xmlns="http://www.w3.org/2000/svg">
<g clip-path="url(#clip0_169_969)">
<path d="M75 0H35C15.67 0 0 15.67 0 35V75C0 94.33 15.67 110 35 110H75C94.33 110 110 94.33 110 75V35C110 15.67 94.33 0 75 0Z" fill="url(#paint0_linear_169_969)"/>
<path d="M75.478 55.0825C76.318 55.0825 77 55.7512 77 56.5769C77 57.4006 76.318 58.0674 75.478 58.0674H73.354V65.1866C73.354 69.4973 69.78 73 65.388 73H62.202C61.36 73 60.678 72.3312 60.678 71.5056C60.678 70.6819 61.36 70.0131 62.202 70.0131H65.388C68.102 70.0131 70.31 67.8499 70.31 65.1866V58.0674H65.064V60.0502C65.084 62.5311 63.054 64.559 60.524 64.5825H49.476C46.948 64.559 44.918 62.5311 44.938 60.0502V58.0674H39.692V65.1944C39.692 67.8479 41.894 70.0072 44.6 70.0111L47.856 70.0131C48.696 70.0131 49.378 70.6819 49.378 71.5056C49.376 72.3312 48.696 73 47.854 73L44.596 72.998C40.214 72.9941 36.646 69.4934 36.646 65.1944V58.0674H34.524C33.684 58.0674 33 57.4006 33 56.5769C33 55.7512 33.684 55.0825 34.524 55.0825H75.478ZM60.525 44.4853C61.735 44.4853 62.897 44.9619 63.743 45.8111C64.595 46.6681 65.067 47.8194 65.065 49.0177V51.5084C65.055 51.8006 64.817 52.0379 64.519 52.0457H45.479C45.183 52.0359 44.945 51.7986 44.9388 51.5084V49.0177C44.917 46.5367 46.949 44.5108 49.477 44.4853H60.525ZM65.3872 37.0006C69.7812 37.0006 73.3532 40.5033 73.3532 44.8121V48.5246C73.3532 49.3483 72.6732 50.019 71.8312 50.019C70.9912 50.019 70.3092 49.3483 70.3092 48.5246V44.8121C70.3092 42.1507 68.1012 39.9855 65.3872 39.9855H62.2012C61.3612 39.9855 60.6792 39.3187 60.6792 38.495C60.6792 37.6694 61.3612 37.0006 62.2012 37.0006H65.3872ZM47.8554 37C48.6954 37 49.3774 37.6688 49.3774 38.4944C49.3774 39.3181 48.6974 39.9869 47.8554 39.9869L44.5974 39.9889C41.8934 39.9928 39.6934 42.1521 39.6934 44.8056V48.524C39.6934 49.3477 39.0094 50.0185 38.1694 50.0185C37.3294 50.0185 36.6474 49.3477 36.6474 48.524V44.8056C36.6474 40.5066 40.2134 37.0059 44.5954 37.002L47.8554 37Z" fill="white"/>
</g>
<defs>
<linearGradient id="paint0_linear_169_969" x1="94.5" y1="101" x2="18.5" y2="7.5" gradientUnits="userSpaceOnUse">
<stop stop-color="#25D9D9"/>
<stop offset="1" stop-color="#25D9D9" stop-opacity="0.5"/>
</linearGradient>
<clipPath id="clip0_169_969">
<rect width="110" height="110" fill="white"/>
</clipPath>
</defs>
</svg>
