<svg width="55" height="35" viewBox="0 0 55 35" fill="none" xmlns="http://www.w3.org/2000/svg">
<circle cx="17.5" cy="17.5" r="17.5" fill="white"/>
<path fill-rule="evenodd" clip-rule="evenodd" d="M24.533 22.1609C24.533 24.9075 20.7663 25.225 17.9338 25.225L17.7311 25.2249C15.9265 25.2205 11.333 25.1066 11.333 22.1442C11.333 19.4536 14.9483 19.094 17.7592 19.0805L18.1365 19.0802C19.941 19.0846 24.533 19.1985 24.533 22.1609ZM17.9338 20.33C14.383 20.33 12.583 20.94 12.583 22.1442C12.583 23.3592 14.383 23.975 17.9338 23.975C21.4838 23.975 23.283 23.365 23.283 22.1609C23.283 20.9459 21.4838 20.33 17.9338 20.33ZM17.9338 8.66638C20.3738 8.66638 22.358 10.6514 22.358 13.0914C22.358 15.5314 20.3738 17.5155 17.9338 17.5155H17.9072C15.4722 17.508 13.4997 15.5222 13.508 13.0889C13.508 10.6514 15.493 8.66638 17.9338 8.66638ZM17.9338 9.85638C16.1497 9.85638 14.698 11.3072 14.698 13.0914C14.6922 14.8697 16.133 16.3197 17.9097 16.3264L17.9338 16.9214V16.3264C19.7172 16.3264 21.168 14.8747 21.168 13.0914C21.168 11.3072 19.7172 9.85638 17.9338 9.85638Z" fill="#F48856"/>
<path d="M49.9214 19.7785C49.8866 19.7446 49.7378 19.6166 49.6154 19.4973C48.8456 18.7982 47.5856 16.9746 47.201 16.0201C47.1392 15.8751 47.0084 15.5086 47 15.3128C47 15.1252 47.0432 14.9463 47.1308 14.7756C47.2532 14.5629 47.4458 14.3922 47.6732 14.2987C47.831 14.2385 48.3032 14.145 48.3116 14.145C48.8282 14.0514 49.6676 14 50.5952 14C51.479 14 52.2842 14.0514 52.8086 14.128C52.817 14.1368 53.4038 14.2303 53.6048 14.3326C53.972 14.5202 54.2 14.8867 54.2 15.2789V15.3128C54.191 15.5682 53.963 16.1054 53.9546 16.1054C53.5694 17.0085 52.3712 18.7901 51.575 19.5061C51.575 19.5061 51.3704 19.7077 51.2426 19.7954C51.059 19.9322 50.8316 20 50.6042 20C50.3504 20 50.114 19.9234 49.9214 19.7785Z" fill="white"/>
</svg>
