<svg width="18" height="18" viewBox="0 0 18 18" fill="none" xmlns="http://www.w3.org/2000/svg">
<path d="M0 3.75C0 2.75544 0.395088 1.80161 1.09835 1.09835C1.80161 0.395088 2.75544 0 3.75 0H14.25C15.2446 0 16.1984 0.395088 16.9016 1.09835C17.6049 1.80161 18 2.75544 18 3.75V14.25C18 15.2446 17.6049 16.1984 16.9016 16.9016C16.1984 17.6049 15.2446 18 14.25 18H3.75C2.75544 18 1.80161 17.6049 1.09835 16.9016C0.395088 16.1984 0 15.2446 0 14.25V3.75ZM3.75 1.5C3.15326 1.5 2.58097 1.73705 2.15901 2.15901C1.73705 2.58097 1.5 3.15326 1.5 3.75V14.25C1.5 14.8467 1.73705 15.419 2.15901 15.841C2.58097 16.2629 3.15326 16.5 3.75 16.5H14.25C14.8467 16.5 15.419 16.2629 15.841 15.841C16.2629 15.419 16.5 14.8467 16.5 14.25V3.75C16.5 3.15326 16.2629 2.58097 15.841 2.15901C15.419 1.73705 14.8467 1.5 14.25 1.5H3.75ZM3.375 12.75C3.375 12.5511 3.45402 12.3603 3.59467 12.2197C3.73532 12.079 3.92609 12 4.125 12H7.5C7.69891 12 7.88968 12.079 8.03033 12.2197C8.17098 12.3603 8.25 12.5511 8.25 12.75C8.25 12.9489 8.17098 13.1397 8.03033 13.2803C7.88968 13.421 7.69891 13.5 7.5 13.5H4.125C3.92609 13.5 3.73532 13.421 3.59467 13.2803C3.45402 13.1397 3.375 12.9489 3.375 12.75ZM4.125 6C3.92609 6 3.73532 6.07902 3.59467 6.21967C3.45402 6.36032 3.375 6.55109 3.375 6.75C3.375 6.94891 3.45402 7.13968 3.59467 7.28033C3.73532 7.42098 3.92609 7.5 4.125 7.5H7.5C7.69891 7.5 7.88968 7.42098 8.03033 7.28033C8.17098 7.13968 8.25 6.94891 8.25 6.75C8.25 6.55109 8.17098 6.36032 8.03033 6.21967C7.88968 6.07902 7.69891 6 7.5 6H4.125ZM14.403 10.719C14.4728 10.7887 14.5283 10.8714 14.5661 10.9626C14.6039 11.0537 14.6233 11.1513 14.6233 11.25C14.6233 11.3487 14.6039 11.4463 14.5661 11.5374C14.5283 11.6286 14.4728 11.7113 14.403 11.781L12.153 14.031C12.0833 14.1008 12.0006 14.1563 11.9095 14.1941C11.8183 14.2319 11.7207 14.2513 11.622 14.2513C11.5233 14.2513 11.4257 14.2319 11.3345 14.1941C11.2434 14.1563 11.1607 14.1008 11.091 14.031L9.969 12.909C9.82817 12.7682 9.74905 12.5772 9.74905 12.378C9.74905 12.1788 9.82817 11.9878 9.969 11.847C10.1098 11.7062 10.3008 11.6271 10.5 11.6271C10.6992 11.6271 10.8902 11.7062 11.031 11.847L11.622 12.4395L13.3425 10.719C13.4831 10.5784 13.6739 10.4994 13.8727 10.4994C14.0716 10.4994 14.2624 10.5784 14.403 10.719ZM14.403 5.781C14.4727 5.71137 14.5281 5.62868 14.5658 5.53766C14.6036 5.44664 14.6231 5.34908 14.6232 5.25053C14.6232 5.15198 14.6039 5.05439 14.5662 4.96332C14.5286 4.87225 14.4734 4.78948 14.4037 4.71975C14.3341 4.65002 14.2514 4.59468 14.1604 4.55691C14.0694 4.51913 13.9718 4.49965 13.8733 4.49958C13.7747 4.49951 13.6771 4.51885 13.5861 4.5565C13.495 4.59415 13.4122 4.64937 13.3425 4.719L11.622 6.4395L11.031 5.847C10.9613 5.77727 10.8785 5.72195 10.7874 5.68422C10.6963 5.64648 10.5986 5.62705 10.5 5.62705C10.4014 5.62705 10.3037 5.64648 10.2126 5.68422C10.1215 5.72195 10.0387 5.77727 9.969 5.847C9.89927 5.91673 9.84395 5.99952 9.80622 6.09062C9.76848 6.18173 9.74905 6.27938 9.74905 6.378C9.74905 6.47662 9.76848 6.57427 9.80622 6.66538C9.84395 6.75648 9.89927 6.83927 9.969 6.909L11.091 8.031C11.1607 8.10085 11.2434 8.15626 11.3345 8.19407C11.4257 8.23188 11.5233 8.25134 11.622 8.25134C11.7207 8.25134 11.8183 8.23188 11.9095 8.19407C12.0006 8.15626 12.0833 8.10085 12.153 8.031L14.403 5.781Z" fill="#333333"/>
</svg>
